<?xml version="1.0" encoding="UTF-8"?>
<svg enable-background="new 0 0 100 100" version="1.1" viewBox="0 0 100 100" xml:space="preserve" xmlns="http://www.w3.org/2000/svg">

	<path d="m79.9 4.2h-59.8c-0.4 0-0.8 0.3-0.8 0.8v7.3c0 0.4 0.3 0.8 0.8 0.8h5.6v82c0 0.4 0.3 0.8 0.8 0.8h47.3c0.4 0 0.8-0.3 0.8-0.8v-82.1h5.6c0.4 0 0.8-0.3 0.8-0.8v-7.2c-0.3-0.4-0.6-0.8-1.1-0.8zm-52.8 8.8h5.8v81.2h-5.8v-81.2zm22.2 0v6.2h-14.9v-6.2h14.9zm7.2 70.8c-0.4-3.3-3.1-5.8-6.5-5.8s-6.1 2.5-6.5 5.8h-9.1v-9h31.2v9h-9.1zm-1.4 0.7c0 2.8-2.3 5.1-5.1 5.1s-5.1-2.3-5.1-5.1 2.3-5.1 5.1-5.1c2.8 0.1 5.1 2.3 5.1 5.1zm10.5-63.7v9.3l-31.2 18v-27.3h31.2zm0 52.5h-31.2v-23.5l31.2-18v41.5zm0-54h-14.8v-6.3h14.8v6.3zm-31.2 66h9.1c0.4 3.3 3.1 5.8 6.5 5.8s6.1-2.5 6.5-5.8h9.1v9h-31.2v-9zm38.5 8.9h-5.8v-81.2h5.8v81.2zm6.3-82.7h-58.4v-5.7h58.4v5.7z"/>
	<rect transform="matrix(.866 -.5001 .5001 .866 -10.399 29.588)" x="34.6" y="33.4" width="30.7" height="1.5"/>

</svg>
