<?xml version="1.0" encoding="UTF-8"?>
<svg version="1.1" viewBox="0 0 100 100" xmlns="http://www.w3.org/2000/svg">
<g transform="translate(0 -952.36)">
<path transform="translate(0 952.36)" d="m50 5c-19.355 0-35 15.079-35 33.844v54.156h-5a1.0001 1.0001 0 0 0-0.1875 0 1.0044 1.0044 0 0 0 0.1875 2h80a1.0001 1.0001 0 1 0 0-2h-5v-54.156c0-18.765-15.645-33.844-35-33.844zm0 2c18.317 0 33 14.189 33 31.844v54.156h-66v-54.156c0-17.655 14.683-31.844 33-31.844zm-12.188 32a1.0044 1.0044 0 0 0 0.1875 2h24a1.0001 1.0001 0 1 0 0-2h-24a1.0001 1.0001 0 0 0-0.1875 0zm-9 13a1.0044 1.0044 0 0 0 0.1875 2h42a1.0001 1.0001 0 1 0 0-2h-42a1.0001 1.0001 0 0 0-0.1875 0zm9 13a1.0044 1.0044 0 0 0 0.1875 2h24a1.0001 1.0001 0 1 0 0-2h-24a1.0001 1.0001 0 0 0-0.1875 0z" color="#000000" style="block-progression:tb;text-indent:0;text-transform:none"/>
</g>
</svg>
